#!OML:ASF E:\emotionWalksFemale\Project 1\Capture day 1\Session 1\Female1.ASF
:FULLY-SPECIFIED
:DEGREES
1178
root 7.74065 15.4921 0.271976 -174.077 -21.8093 -180.376
lowerback -0.272406 -0.565803 -7.76079
upperback -6.17856 -1.51906 -1.86504
thorax -6.19953 -0.570921 2.48063
lowerneck 1.4398 -8.39888 -10.7732
upperneck 6.95278 -13.1946 16.3725
head 3.61524 -6.73219 6.24208
rclavicle -1.64991e-014 -6.75868e-014
rhumerus -50.0901 3.2323 -86.4128
rradius 44.7413
rwrist 14.9611
rhand -4.00204 -57.9361
rfingers 7.12502
rthumb 21.752 993.266
lclavicle -1.64991e-014 -6.75868e-014
lhumerus -49.5798 -2.2388 80.0914
lradius 36.225
lwrist -23.3811
lhand 3.46598 -28.1229
lfingers 7.12502
lthumb 28.9057 -0.342936
rfemur -20.0991 8.48187 30.2896
rtibia 21.9008
rfoot -28.7287 -40.0553
rtoes 34.739
lfemur 7.89116 -4.98211 -24.7206
ltibia 24.5137
lfoot 3.87013 -14.0132
ltoes 32.9027
1179
root 7.72991 15.4889 0.182331 -174.525 -21.5301 -180.013
lowerback -0.118575 -0.595196 -7.45518
upperback -6.12179 -1.52615 -1.64983
thorax -6.22054 -0.574898 2.53843
lowerneck 1.17109 -8.22129 -10.6409
upperneck 7.2124 -12.8969 15.9518
head 3.65923 -6.56525 6.09536
rclavicle 2.25621e-014 1.74931e-014
rhumerus -50.0069 3.35046 -86.4058
rradius 44.806
rwrist 14.876
rhand -3.48645 -57.3293
rfingers 7.12502
rthumb 22.247 993.931
lclavicle 2.25621e-014 1.74931e-014
lhumerus -49.6936 -2.21582 80.3006
lradius 36.1029
lwrist -23.4028
lhand 2.94726 -28.1822
lfingers 7.12502
lthumb 28.4102 -0.318545
rfemur -19.2947 7.78725 30.9772
rtibia 21.7525
rfoot -27.747 -39.5356
rtoes 33.7385
lfemur 7.58541 -3.9321 -23.9922
ltibia 26.0199
lfoot 5.5508 -14.3624
ltoes 32.8941
1180
root 7.72077 15.484 0.095513 -174.854 -21.2328 -179.773
lowerback -0.0218461 -0.618967 -7.21902
upperback -6.11036 -1.5371 -1.48512
thorax -6.25901 -0.581341 2.58154
lowerneck 1.02253 -8.07093 -10.4819
upperneck 7.45114 -12.6343 15.4483
head 3.67655 -6.42326 5.92229
rclavicle -4.44284e-014 -9.06458e-014
rhumerus -49.7983 3.52351 -86.3873
rradius 44.6268
rwrist 14.7145
rhand -2.69792 -56.7781
rfingers 7.12502
rthumb 23.0039 994.575
lclavicle -4.44284e-014 -9.06458e-014
lhumerus -49.71 -1.94635 80.336
lradius 35.7635
lwrist -23.4613
lhand 2.67134 -28.2768
lfingers 7.12502
lthumb 28.1465 -0.369411
rfemur -18.592 7.44684 31.4517
rtibia 21.5674
rfoot -26.9326 -39.253
rtoes 32.8705
lfemur 7.10619 -2.75943 -23.3459
ltibia 27.5911
lfoot 6.71718 -14.5083
ltoes 28.6545
1181
root 7.71012 15.4815 0.0120621 -175.116 -20.8718 -179.605
lowerback 0.026791 -0.633202 -7.01282
upperback -6.15968 -1.54828 -1.37415
thorax -6.33712 -0.589909 2.58497
lowerneck 1.10465 -7.87943 -10.1131
upperneck 7.58436 -12.3154 14.8345
head 3.59861 -6.26537 5.69821
rclavicle -2.74323e-014 -4.69132e-014
rhumerus -49.6069 3.80281 -86.4456
rradius 44.4004
rwrist 14.3002
rhand -2.24931 -56.1432
rfingers 7.12502
rthumb 23.4343 995.264
lclavicle -2.74323e-014 -4.69132e-014
lhumerus -49.9091 -1.28817 80.088
lradius 35.6016
lwrist -23.8953
lhand 2.6282 -28.2035
lfingers 7.12502
lthumb 28.1052 -0.289386
rfemur -17.9414 7.18365 31.8201
rtibia 21.3769
rfoot -26.0213 -38.9877
rtoes 31.7214
lfemur 6.54968 -1.74153 -22.8057
ltibia 29.2308
lfoot 8.36742 -14.2597
ltoes 28.6764
1182
root 7.69907 15.4789 -0.0744247 -175.481 -20.476 -179.382
lowerback 0.101953 -0.623685 -6.8081
upperback -6.16619 -1.51918 -1.22865
thorax -6.38723 -0.576704 2.62319
lowerneck 1.05947 -7.71841 -9.90455
upperneck 7.87518 -12.0776 14.3907
head 3.62215 -6.14406 5.5383
rclavicle 9.24349e-015 -2.8625e-014
rhumerus -49.4583 3.94092 -86.4325
rradius 44.3138
rwrist 13.7942
rhand -1.94034 -56.1202
rfingers 7.12502
rthumb 23.7306 995.325
lclavicle 9.24349e-015 -2.8625e-014
lhumerus -50.3301 -0.817883 80.0034
lradius 35.8455
lwrist -24.0197
lhand 2.59509 -27.8956
lfingers 7.12502
lthumb 28.0736 0.0236622
rfemur -17.1433 7.01895 32.2475
rtibia 21.1457
rfoot -25.3539 -38.7172
rtoes 30.8313
lfemur 6.1479 -0.883682 -22.1973
ltibia 30.9703
lfoot 10.2424 -13.9044
ltoes 31.968
1183
root 7.69019 15.4747 -0.160797 -175.881 -20.1602 -179.124
lowerback 0.180334 -0.670365 -6.64973
upperback -6.11363 -1.55305 -1.02041
thorax -6.36744 -0.590665 2.75527
lowerneck 0.93921 -7.52447 -9.85226
upperneck 8.18955 -11.8045 14.0823
head 3.67969 -6.00399 5.444
rclavicle 1.70955e-014 -2.38542e-014
rhumerus -49.1709 3.97158 -86.2991
rradius 44.0771
rwrist 13.4282
rhand -2.00372 -56.0892
rfingers 7.12502
rthumb 23.6698 995.348
lclavicle 1.70955e-014 -2.38542e-014
lhumerus -50.5608 -0.227846 79.9107
lradius 35.8608
lwrist -23.9793
lhand 2.78304 -26.9964
lfingers 7.12502
lthumb 28.2532 0.893278
rfemur -16.2565 6.91409 32.7158
rtibia 20.8163
rfoot -25.0062 -38.4809
rtoes 30.6744
lfemur 5.75557 0.00341297 -21.4556
ltibia 32.8335
lfoot 11.5493 -14.0182
ltoes 30.6161
1184
root 7.68062 15.4717 -0.243738 -176.243 -19.7842 -178.834
lowerback 0.219931 -0.700539 -6.4129
upperback -6.09054 -1.56617 -0.836448
thorax -6.36057 -0.600393 2.81671
lowerneck 0.958854 -7.27856 -9.66653
upperneck 8.38251 -11.449 13.7118
head 3.65764 -5.82919 5.32227
rclavicle 9.24349e-015 2.22639e-014
rhumerus -48.914 3.91396 -86.1652
rradius 43.7266
rwrist 13.3236
rhand -2.33904 -55.6598
rfingers 7.12502
rthumb 23.3482 995.736
lclavicle 9.24349e-015 2.22639e-014
lhumerus -50.7149 0.527933 79.6483
lradius 35.6937
lwrist -24.0421
lhand 2.18024 -27.7332
lfingers 7.12502
lthumb 27.6769 0.250449
rfemur -15.3956 6.65427 33.2205
rtibia 20.4169
rfoot -24.4866 -38.1009
rtoes 30.6439
lfemur 5.20645 1.01283 -20.6919
ltibia 34.8043
lfoot 12.509 -14.2935
ltoes 25.847
1185
root 7.67038 15.4644 -0.328371 -176.694 -19.3088 -178.509
lowerback 0.404623 -0.636572 -6.07938
upperback -6.10581 -1.4676 -0.708972
thorax -6.49187 -0.557666 2.76269
lowerneck 0.753252 -7.10059 -9.38637
upperneck 8.86919 -11.2013 13.22
head 3.76424 -5.69809 5.12678
rclavicle 2.9122e-014 1.27222e-014
rhumerus -48.8847 3.67237 -86.034
rradius 43.5912
rwrist 13.3847
rhand -2.06529 -55.6426
rfingers 7.12502
rthumb 23.6108 995.787
lclavicle 2.9122e-014 1.27222e-014
lhumerus -51.0409 0.812968 79.6125
lradius 35.8112
lwrist -23.6739
lhand 1.92799 -27.8686
lfingers 7.12502
lthumb 27.4357 0.153501
rfemur -14.4021 6.51604 33.7441
rtibia 19.9359
rfoot -23.887 -37.8101
rtoes 30.5937
lfemur 4.68295 2.13368 -19.9236
ltibia 36.869
lfoot 13.4164 -14.533
ltoes 19.7416
1186
root 7.6618 15.4543 -0.416505 -177.167 -18.8939 -178.16
lowerback 0.542405 -0.611396 -5.78073
upperback -6.06738 -1.40854 -0.546067
thorax -6.53325 -0.533652 2.76511
lowerneck 0.367706 -6.95074 -8.97482
upperneck 9.39536 -10.9564 12.5538
head 3.89988 -5.55993 4.84824
rclavicle -6.93758e-014 3.81667e-014
rhumerus -48.7628 3.528 -85.8723
rradius 43.5096
rwrist 13.3001
rhand -1.56905 -55.8601
rfingers 7.12502
rthumb 24.0867 995.632
lclavicle -6.93758e-014 3.81667e-014
lhumerus -51.2135 1.15738 79.5969
lradius 35.8078
lwrist -23.2382
lhand 1.79101 -27.7425
lfingers 7.12502
lthumb 27.3047 0.300278
rfemur -13.3147 6.60587 34.2908
rtibia 19.3617
rfoot -23.4212 -37.6499
rtoes 31.0432
lfemur 4.14707 3.12062 -19.1
ltibia 38.9978
lfoot 14.29 -14.829
ltoes 12.8617
1187
root 7.65283 15.4502 -0.499602 -177.451 -18.5313 -177.796
lowerback 0.424339 -0.690763 -5.51619
upperback -6.00542 -1.46939 -0.297748
thorax -6.38868 -0.571443 2.8768
lowerneck 0.328556 -6.68027 -8.62317
upperneck 9.41526 -10.5117 12.0199
head 3.8174 -5.33696 4.65361
rclavicle 1.23246e-014 0
rhumerus -48.372 3.68785 -85.7039
rradius 43.2043
rwrist 13.0956
rhand -1.6135 -55.6676
rfingers 7.12502
rthumb 24.0441 995.819
lclavicle 1.23246e-014 0
lhumerus -51.3206 2.00411 79.3823
lradius 35.7732
lwrist -23.2238
lhand 1.49764 -27.7011
lfingers 7.12502
lthumb 27.0241 0.385612
rfemur -12.4801 6.66756 34.8208
rtibia 18.7961
rfoot -22.7646 -37.4393
rtoes 31.5807
lfemur 3.33965 3.90189 -18.2551
ltibia 41.1533
lfoot 15.5146 -14.5648
ltoes 10.236
1188
root 7.64399 15.4451 -0.577037 -177.645 -18.1209 -177.414
lowerback 0.462824 -0.747973 -5.18432
upperback -6.10247 -1.53086 -0.0798818
thorax -6.50747 -0.609582 2.92509
lowerneck 0.464816 -6.37683 -8.28438
upperneck 9.52329 -10.0659 11.5248
head 3.73805 -5.12413 4.47797
rclavicle 3.50855e-014 2.14687e-014
rhumerus -48.1473 3.77247 -85.5939
rradius 42.6494
rwrist 13.1856
rhand -2.62408 -54.6819
rfingers 7.12502
rthumb 23.0747 996.68
lclavicle 3.50855e-014 2.14687e-014
lhumerus -51.8557 2.6069 79.2191
lradius 36.1245
lwrist -23.0883
lhand 0.914177 -27.7213
lfingers 7.12502
lthumb 26.4657 0.450715
rfemur -11.8128 6.60667 35.3465
rtibia 18.2654
rfoot -21.8532 -37.1725
rtoes 31.9912
lfemur 2.37964 4.76505 -17.3752
ltibia 43.3351
lfoot 16.8247 -14.0942
ltoes 9.40182
1189
root 7.63718 15.438 -0.653048 -177.797 -17.7243 -177.149
lowerback 0.655658 -0.779387 -4.94505
upperback -6.28915 -1.58557 0.0647252
thorax -6.81433 -0.638825 2.95428
lowerneck 0.45713 -6.15563 -7.90132
upperneck 10.0204 -9.77567 10.9406
head 3.81243 -4.98781 4.24775
rclavicle -4.78077e-014 -1.51076e-014
rhumerus -48.1229 3.62694 -85.4054
rradius 42.1394
rwrist 13.7878
rhand -3.12892 -53.7616
rfingers 7.12502
rthumb 22.5902 997.54
lclavicle -4.78077e-014 -1.51076e-014
lhumerus -52.4456 3.04388 79.1132
lradius 36.4153
lwrist -22.7823
lhand 0.525098 -27.9351
lfingers 7.12502
lthumb 26.0932 0.292471
rfemur -11.1094 6.42946 35.771
rtibia 17.6702
rfoot -20.8402 -36.8799
rtoes 32.5279
lfemur 1.30773 5.7326 -16.6269
ltibia 45.5498
lfoot 17.5618 -14.5435
ltoes 3.94588
